<svg width="252" height="45" viewBox="0 0 252 45" fill="none" xmlns="http://www.w3.org/2000/svg">
<g clip-path="url(#clip0_3134_2)">
<path d="M67.219 8.71759C68.8863 8.71759 70.3623 8.88159 71.647 9.20959C72.9317 9.53759 74.0797 9.96125 75.091 10.4806L73.82 14.6626C72.6993 14.1159 71.6197 13.7059 70.581 13.4326C69.5423 13.1319 68.531 12.9816 67.547 12.9816C66.235 12.9816 65.21 13.2413 64.472 13.7606C63.7613 14.2799 63.406 14.9769 63.406 15.8516C63.406 16.7536 63.7203 17.4369 64.349 17.9016C64.9777 18.3663 65.989 18.8173 67.383 19.2546L69.843 20.0336C71.893 20.7169 73.492 21.6873 74.64 22.9446C75.8153 24.2019 76.403 25.7463 76.403 27.5776C76.403 28.6709 76.198 29.6959 75.788 30.6526C75.378 31.6093 74.763 32.4429 73.943 33.1536C73.123 33.8643 72.098 34.4246 70.868 34.8346C69.638 35.2446 68.203 35.4496 66.563 35.4496C63.4743 35.4496 60.6453 34.8209 58.076 33.5636L59.347 29.3816C60.5223 29.9556 61.6703 30.4066 62.791 30.7346C63.9117 31.0353 65.087 31.1856 66.317 31.1856C67.7657 31.1856 68.859 30.9259 69.597 30.4066C70.335 29.8599 70.704 29.1083 70.704 28.1516C70.704 27.8236 70.6357 27.5093 70.499 27.2086C70.3897 26.8806 70.171 26.5799 69.843 26.3066C69.515 26.0059 69.064 25.7189 68.49 25.4456C67.9433 25.1449 67.219 24.8579 66.317 24.5846L64.144 23.8466C63.1873 23.5186 62.3127 23.1359 61.52 22.6986C60.7273 22.2613 60.044 21.7556 59.47 21.1816C58.9233 20.6076 58.486 19.9379 58.158 19.1726C57.8573 18.3799 57.707 17.4643 57.707 16.4256C57.707 15.3049 57.912 14.2799 58.322 13.3506C58.732 12.3939 59.3333 11.5739 60.126 10.8906C60.946 10.2073 61.9437 9.67426 63.119 9.29159C64.3217 8.90892 65.6883 8.71759 67.219 8.71759ZM97.8924 26.6346H84.8954V26.7986C84.8954 28.3566 85.4421 29.5183 86.5354 30.2836C87.6288 31.0489 89.0364 31.4316 90.7584 31.4316C91.8518 31.4316 92.8084 31.3223 93.6284 31.1036C94.4758 30.8849 95.2411 30.6253 95.9244 30.3246L96.9084 34.1376C96.1704 34.4929 95.2411 34.7936 94.1204 35.0396C92.9998 35.3129 91.6741 35.4496 90.1434 35.4496C88.6674 35.4496 87.2734 35.2583 85.9614 34.8756C84.6768 34.4656 83.5424 33.8506 82.5584 33.0306C81.6018 32.2106 80.8364 31.1719 80.2624 29.9146C79.6884 28.6573 79.4014 27.1539 79.4014 25.4046C79.4014 23.8466 79.6338 22.4389 80.0984 21.1816C80.5631 19.8969 81.2191 18.8036 82.0664 17.9016C82.9411 16.9996 83.9798 16.3026 85.1824 15.8106C86.3851 15.2913 87.7244 15.0316 89.2004 15.0316C91.8518 15.0316 93.9564 15.8379 95.5144 17.4506C97.0998 19.0633 97.8924 21.3183 97.8924 24.2156V26.6346ZM92.3164 22.9036C92.3164 22.3843 92.2481 21.8786 92.1114 21.3866C92.0021 20.8946 91.8108 20.4709 91.5374 20.1156C91.2641 19.7329 90.9224 19.4323 90.5124 19.2136C90.1024 18.9949 89.5968 18.8856 88.9954 18.8856C87.9021 18.8856 87.0001 19.2546 86.2894 19.9926C85.5788 20.7306 85.1551 21.7283 85.0184 22.9856L92.3164 22.9036ZM107.181 34.9986H101.728V15.4416H105.992L106.648 17.9426C107.55 17.0133 108.534 16.3026 109.6 15.8106C110.693 15.2913 111.896 15.0316 113.208 15.0316C115.367 15.0316 117.021 15.6193 118.169 16.7946C119.317 17.9699 119.891 19.6783 119.891 21.9196V34.9986H114.438V22.4936C114.438 21.4823 114.192 20.6896 113.7 20.1156C113.208 19.5143 112.484 19.2136 111.527 19.2136C110.816 19.2136 110.065 19.4186 109.272 19.8286C108.507 20.2113 107.81 20.7443 107.181 21.4276V34.9986ZM144.264 25.2816C144.264 26.8396 144.031 28.2473 143.567 29.5046C143.102 30.7619 142.46 31.8416 141.64 32.7436C140.82 33.6183 139.849 34.2879 138.729 34.7526C137.608 35.2173 136.392 35.4496 135.08 35.4496C133.795 35.4496 132.702 35.2583 131.8 34.8756C130.898 34.4656 130.105 33.9053 129.422 33.1946H129.258L128.889 34.9986H124.953V5.72459H130.365V17.0406C131.048 16.4119 131.841 15.9199 132.743 15.5646C133.672 15.2093 134.656 15.0316 135.695 15.0316C138.373 15.0316 140.464 15.9336 141.968 17.7376C143.498 19.5416 144.264 22.0563 144.264 25.2816ZM138.647 25.4046C138.647 23.3819 138.25 21.8513 137.458 20.8126C136.665 19.7466 135.544 19.2136 134.096 19.2136C133.33 19.2136 132.62 19.4049 131.964 19.7876C131.308 20.1429 130.788 20.5529 130.406 21.0176V29.9966C130.761 30.4066 131.212 30.7483 131.759 31.0216C132.333 31.2949 132.934 31.4316 133.563 31.4316C134.219 31.4316 134.847 31.3086 135.449 31.0626C136.077 30.8166 136.624 30.4476 137.089 29.9556C137.581 29.4636 137.963 28.8486 138.237 28.1106C138.51 27.3453 138.647 26.4433 138.647 25.4046ZM160.801 15.4416H166.254V34.9986H162.195L161.621 32.7846H161.457C161.157 33.0853 160.801 33.3996 160.391 33.7276C160.009 34.0283 159.544 34.3153 158.997 34.5886C158.478 34.8346 157.877 35.0396 157.193 35.2036C156.537 35.3676 155.799 35.4496 154.979 35.4496C152.875 35.4496 151.207 34.8619 149.977 33.6866C148.775 32.5113 148.173 30.7756 148.173 28.4796V15.4416H153.626V28.0286C153.626 29.2039 153.9 30.0513 154.446 30.5706C155.02 31.0899 155.745 31.3496 156.619 31.3496C157.603 31.3496 158.437 31.1446 159.12 30.7346C159.831 30.3246 160.391 29.8463 160.801 29.2996V15.4416ZM171.607 34.9986V15.4416H177.06V34.9986H171.607ZM174.354 11.2596C173.424 11.2596 172.7 10.9999 172.181 10.4806C171.661 9.93392 171.402 9.26426 171.402 8.47159C171.402 7.67892 171.661 7.02292 172.181 6.50359C172.7 5.95692 173.424 5.68359 174.354 5.68359C175.256 5.68359 175.966 5.95692 176.486 6.50359C177.032 7.02292 177.306 7.67892 177.306 8.47159C177.306 9.26426 177.046 9.93392 176.527 10.4806C176.007 10.9999 175.283 11.2596 174.354 11.2596ZM182.651 34.9986V5.72459H188.022V34.9986H182.651ZM205.725 5.72459H211.178V34.9986H207.283L206.709 32.8666H206.504C206.012 33.5499 205.302 34.1513 204.372 34.6706C203.47 35.1899 202.281 35.4496 200.805 35.4496C199.575 35.4496 198.427 35.2173 197.361 34.7526C196.295 34.2879 195.366 33.6183 194.573 32.7436C193.781 31.8689 193.152 30.8029 192.687 29.5456C192.25 28.2883 192.031 26.8533 192.031 25.2406C192.031 23.6826 192.236 22.2749 192.646 21.0176C193.056 19.7603 193.644 18.6943 194.409 17.8196C195.175 16.9176 196.118 16.2343 197.238 15.7696C198.359 15.2776 199.644 15.0316 201.092 15.0316C202.022 15.0316 202.896 15.1683 203.716 15.4416C204.564 15.7149 205.233 16.0703 205.725 16.5076V5.72459ZM205.725 20.5666C205.37 20.1293 204.905 19.7603 204.331 19.4596C203.757 19.1589 203.129 19.0086 202.445 19.0086C201.789 19.0086 201.161 19.1179 200.559 19.3366C199.985 19.5553 199.466 19.9106 199.001 20.4026C198.564 20.8673 198.209 21.4959 197.935 22.2886C197.662 23.0539 197.525 23.9969 197.525 25.1176C197.525 26.2109 197.648 27.1539 197.894 27.9466C198.14 28.7393 198.468 29.3953 198.878 29.9146C199.288 30.4339 199.767 30.8166 200.313 31.0626C200.887 31.3086 201.489 31.4316 202.117 31.4316C202.992 31.4316 203.73 31.2266 204.331 30.8166C204.96 30.3793 205.425 29.8736 205.725 29.2996V20.5666ZM233.625 26.6346H220.628V26.7986C220.628 28.3566 221.174 29.5183 222.268 30.2836C223.361 31.0489 224.769 31.4316 226.491 31.4316C227.584 31.4316 228.541 31.3223 229.361 31.1036C230.208 30.8849 230.973 30.6253 231.657 30.3246L232.641 34.1376C231.903 34.4929 230.973 34.7936 229.853 35.0396C228.732 35.3129 227.406 35.4496 225.876 35.4496C224.4 35.4496 223.006 35.2583 221.694 34.8756C220.409 34.4656 219.275 33.8506 218.291 33.0306C217.334 32.2106 216.569 31.1719 215.995 29.9146C215.421 28.6573 215.134 27.1539 215.134 25.4046C215.134 23.8466 215.366 22.4389 215.831 21.1816C216.295 19.8969 216.951 18.8036 217.799 17.9016C218.673 16.9996 219.712 16.3026 220.915 15.8106C222.117 15.2913 223.457 15.0316 224.933 15.0316C227.584 15.0316 229.689 15.8379 231.247 17.4506C232.832 19.0633 233.625 21.3183 233.625 24.2156V26.6346ZM228.049 22.9036C228.049 22.3843 227.98 21.8786 227.844 21.3866C227.734 20.8946 227.543 20.4709 227.27 20.1156C226.996 19.7329 226.655 19.4323 226.245 19.2136C225.835 18.9949 225.329 18.8856 224.728 18.8856C223.634 18.8856 222.732 19.2546 222.022 19.9926C221.311 20.7306 220.887 21.7283 220.751 22.9856L228.049 22.9036ZM237.461 34.9986V15.4416H241.684L242.299 18.9676C242.763 17.9289 243.501 17.0133 244.513 16.2206C245.524 15.4279 246.795 15.0316 248.326 15.0316C248.954 15.0316 249.515 15.0999 250.007 15.2366C250.499 15.3733 250.909 15.5373 251.237 15.7286L250.335 20.0336C250.034 19.8696 249.651 19.7329 249.187 19.6236C248.722 19.4869 248.175 19.4186 247.547 19.4186C246.207 19.4186 245.087 19.8696 244.185 20.7716C243.31 21.6463 242.873 23.0949 242.873 25.1176V34.9986H237.461Z" fill="white"/>
<mask id="mask0_3134_2" style="mask-type:luminance" maskUnits="userSpaceOnUse" x="0" y="0" width="45" height="45">
<path d="M45 0H0V45H45V0Z" fill="white"/>
</mask>
<g mask="url(#mask0_3134_2)">
<mask id="mask1_3134_2" style="mask-type:luminance" maskUnits="userSpaceOnUse" x="0" y="0" width="45" height="45">
<path d="M45 0H0V45H45V0Z" fill="white"/>
</mask>
<g mask="url(#mask1_3134_2)">
<path d="M22.5 45C34.9264 45 45 34.9264 45 22.5C45 10.0736 34.9264 0 22.5 0C10.0736 0 0 10.0736 0 22.5C0 34.9264 10.0736 45 22.5 45Z" fill="#FF4500"/>
<mask id="mask2_3134_2" style="mask-type:alpha" maskUnits="userSpaceOnUse" x="0" y="0" width="45" height="45">
<path d="M22.5 45C34.9265 45 45 34.9265 45 22.5C45 10.0736 34.9265 0 22.5 0C10.0736 0 0 10.0736 0 22.5C0 34.9265 10.0736 45 22.5 45Z" fill="#FF8400"/>
</mask>
<g mask="url(#mask2_3134_2)">
<path d="M36.81 31.7682C43.83 39.8682 34.9265 44.9982 22.5 44.9982C10.0736 44.9982 0 34.9247 0 22.4982C9.09 28.5282 -1.35641 19.7082 11.07 19.7082C23.58 16.4682 23.22 23.3982 36.81 31.7682Z" fill="#4F4F4F"/>
<path d="M-6.66016 28.3484L12.8699 9.05078L42.2999 36.2684L37.7099 42.7484L12.8699 19.4008L-1.98016 34.1984L-6.66016 28.3484Z" fill="white"/>
<path d="M27.3594 18.6295L34.3794 11.5195L46.4394 23.0395L44.7294 31.7695L34.3794 21.5095L32.3994 23.6695L27.3594 18.6295Z" fill="white"/>
</g>
<path d="M12.7804 28.0781H8.82031V31.8581H12.7804V28.0781Z" fill="white"/>
<path d="M12.7804 33.4805H8.82031V37.2605H12.7804V33.4805Z" fill="white"/>
<path d="M18.7217 33.4805H14.7617V37.2605H18.7217V33.4805Z" fill="white"/>
<path d="M18.7217 28.0781H14.7617V31.8581H18.7217V28.0781Z" fill="white"/>
</g>
</g>
</g>
<defs>
<clipPath id="clip0_3134_2">
<rect width="252" height="45" fill="white"/>
</clipPath>
</defs>
</svg>
