<svg width="250" height="250" viewBox="0 0 250 250" fill="none" xmlns="http://www.w3.org/2000/svg">
<g clip-path="url(#clip0_1_18)">
<circle cx="125" cy="125" r="125" fill="#FF8400"/>
<mask id="mask0_1_18" style="mask-type:alpha" maskUnits="userSpaceOnUse" x="0" y="0" width="250" height="250">
<path d="M125 250C194.036 250 250 194.036 250 125C250 55.9644 194.036 0 125 0C55.9644 0 0 55.9644 0 125C0 194.036 55.9644 250 125 250Z" fill="#FF8400"/>
</mask>
<g mask="url(#mask0_1_18)">
<path d="M204.5 176.5C243.5 221.5 194.036 250 125 250C55.9644 250 0 194.036 0 125C50.5 158.5 -7.53559 109.5 61.5 109.5C131 91.5 129 130 204.5 176.5Z" fill="#4F4F4F"/>
<path d="M-37 157.5L71.5 50.2911L235 201.5L209.5 237.5L71.5 107.791L-11 190L-37 157.5Z" fill="white"/>
<path d="M152 103.5L191 64L258 128L248.5 176.5L191 119.5L180 131.5L152 103.5Z" fill="white"/>
</g>
<rect x="49" y="156" width="22" height="21" fill="white"/>
<rect x="49" y="186" width="22" height="21" fill="white"/>
<rect x="82" y="186" width="22" height="21" fill="white"/>
<rect x="82" y="156" width="22" height="21" fill="white"/>
</g>
<defs>
<clipPath id="clip0_1_18">
<rect width="250" height="250" fill="white"/>
</clipPath>
</defs>
</svg>
