<svg width="45" height="45" viewBox="0 0 45 45" fill="none" xmlns="http://www.w3.org/2000/svg">
<mask id="mask0_3134_24" style="mask-type:luminance" maskUnits="userSpaceOnUse" x="0" y="0" width="45" height="45">
<path d="M45 0H0V45H45V0Z" fill="white"/>
</mask>
<g mask="url(#mask0_3134_24)">
<mask id="mask1_3134_24" style="mask-type:luminance" maskUnits="userSpaceOnUse" x="0" y="0" width="45" height="45">
<path d="M45 0H0V45H45V0Z" fill="white"/>
</mask>
<g mask="url(#mask1_3134_24)">
<path d="M22.5 45C34.9264 45 45 34.9264 45 22.5C45 10.0736 34.9264 0 22.5 0C10.0736 0 0 10.0736 0 22.5C0 34.9264 10.0736 45 22.5 45Z" fill="#FF4500"/>
<mask id="mask2_3134_24" style="mask-type:alpha" maskUnits="userSpaceOnUse" x="0" y="0" width="45" height="45">
<path d="M22.5 45C34.9265 45 45 34.9265 45 22.5C45 10.0736 34.9265 0 22.5 0C10.0736 0 0 10.0736 0 22.5C0 34.9265 10.0736 45 22.5 45Z" fill="#FF8400"/>
</mask>
<g mask="url(#mask2_3134_24)">
<path d="M36.81 31.7682C43.83 39.8682 34.9265 44.9982 22.5 44.9982C10.0736 44.9982 0 34.9247 0 22.4982C9.09 28.5282 -1.35641 19.7082 11.07 19.7082C23.58 16.4682 23.22 23.3982 36.81 31.7682Z" fill="#4F4F4F"/>
<path d="M-6.66016 28.3484L12.8699 9.05078L42.2999 36.2684L37.7099 42.7484L12.8699 19.4008L-1.98016 34.1984L-6.66016 28.3484Z" fill="white"/>
<path d="M27.3594 18.6295L34.3794 11.5195L46.4394 23.0395L44.7294 31.7695L34.3794 21.5095L32.3994 23.6695L27.3594 18.6295Z" fill="white"/>
</g>
<path d="M12.7804 28.0781H8.82031V31.8581H12.7804V28.0781Z" fill="white"/>
<path d="M12.7804 33.4805H8.82031V37.2605H12.7804V33.4805Z" fill="white"/>
<path d="M18.7217 33.4805H14.7617V37.2605H18.7217V33.4805Z" fill="white"/>
<path d="M18.7217 28.0781H14.7617V31.8581H18.7217V28.0781Z" fill="white"/>
</g>
</g>
</svg>
