<svg width="909" height="334" viewBox="0 0 909 334" fill="none" xmlns="http://www.w3.org/2000/svg">
<path fill-rule="evenodd" clip-rule="evenodd" d="M686.135 259.393C670.595 251.792 654.717 244.021 637.572 241.825C590.191 235.66 548.891 276.875 502.862 289.966C459.451 302.213 417.644 258.801 372.29 257.957C328.964 257.112 284.454 279.156 243.746 264.291C217.226 254.579 199.828 229.664 178.038 211.674C167.058 202.721 151.265 195.374 139.356 203.059C132.6 207.451 129.221 215.559 126.688 223.329C120.775 241.065 116.553 259.393 114.103 277.889C113.739 281 112.723 283.999 111.123 286.691C109.522 289.383 107.372 291.708 104.813 293.514C95.3537 300.017 87.4147 294.443 81.3338 288.531C62.4997 270.372 51.6047 245.542 43.6656 220.711C36.4155 198.077 31.1868 174.844 28.041 151.287C25.0005 128.821 24.0715 96.4735 43.919 85.5784C63.0064 75.1901 90.4552 84.7338 111.823 88.8723C152.363 96.4735 177.7 93.2641 194.423 66.9977C173.255 73.5884 150.592 73.6472 129.39 67.1666C109.543 61.0856 90.1174 52.6399 69.4252 50.275C48.8176 47.7413 25.7606 52.7243 12.6697 68.8558C-1.18137 86.0007 -0.336783 110.578 3.04152 132.368C12.6697 195.12 37.4158 255.423 74.6616 306.774C83.4452 318.936 94.2558 331.435 109.289 333.209C111.969 333.612 114.705 333.439 117.313 332.702C127.025 329.662 128.292 319.611 129.306 310.828C132.008 285.068 137.245 259.646 144.761 234.815C145.751 231.602 147.568 228.705 150.03 226.415C152.493 224.125 155.515 222.524 158.792 221.771C162.069 221.018 165.486 221.14 168.701 222.125C171.917 223.11 174.816 224.924 177.109 227.383C180.001 230.54 182.628 233.929 184.963 237.518C192.818 249.258 198.308 262.433 207.345 273.328C218.915 287.348 236.06 296.639 254.134 298.666C298.305 303.733 341.463 267.839 384.452 279.24C400.499 283.463 414.012 293.936 429.046 301.199C457.255 314.966 491.545 316.909 520.429 304.409C542.81 294.696 562.827 282.281 584.87 271.724C610.376 259.393 638.67 251.876 665.781 260.153L731.995 280.169C731.995 280.169 701.422 266.909 686.135 259.393Z" fill="white"/>
<path fill-rule="evenodd" clip-rule="evenodd" d="M260.387 129.834C272.127 105.848 277.11 78.6529 274.576 52.1332C273.961 40.6893 270.663 29.5504 264.948 19.6169C260.246 12.4893 253.483 6.96499 245.561 3.78092C237.638 0.59685 228.933 -0.0954947 220.607 1.79633C203.547 4.92126 189.189 16.8298 177.28 28.8228C166.554 39.6334 152.703 55.6804 135.558 50.1062C136.741 50.444 138.768 53.8223 140.035 54.7514C151.014 62.1837 165.287 54.8358 175.76 50.3596C190.371 44.0252 201.013 37.3531 214.695 29.414C218.331 27.5369 222.313 26.4259 226.395 26.1499C230.477 25.8739 234.573 26.4387 238.428 27.8093C255.151 33.468 258.782 54.2446 261.063 68.9403C264.272 89.2101 262.921 109.733 260.387 129.834Z" fill="#009688"/>
<path d="M158.67 133.809C155.736 132.396 152.639 131.31 149.379 130.549C146.119 129.68 142.968 129.245 139.925 129.245C137.1 129.245 134.818 129.734 133.079 130.712C131.341 131.69 130.471 133.048 130.471 134.787C130.471 136.634 131.286 138.21 132.916 139.514C134.655 140.709 138.024 142.013 143.022 143.426L147.912 144.893C154.432 146.849 159.377 149.729 162.745 153.532C166.114 157.227 167.798 162.008 167.798 167.876C167.798 171.788 166.983 175.374 165.353 178.634C163.723 181.785 161.387 184.502 158.344 186.784C155.41 189.066 151.824 190.805 147.586 192C143.457 193.195 138.839 193.793 133.731 193.793C128.189 193.793 123.245 193.304 118.898 192.326C114.66 191.348 110.694 189.935 106.999 188.088L112.215 170.647C115.367 172.277 118.627 173.635 121.995 174.722C125.473 175.7 129.004 176.189 132.59 176.189C136.72 176.189 139.599 175.591 141.229 174.396C142.968 173.201 143.837 171.788 143.837 170.158C143.837 169.18 143.62 168.365 143.185 167.713C142.859 166.952 142.207 166.246 141.229 165.594C140.251 164.942 138.839 164.344 136.991 163.801C135.253 163.149 132.971 162.388 130.145 161.519L125.092 160.052C118.681 157.987 114.008 155.162 111.074 151.576C108.14 147.881 106.673 142.937 106.673 136.743C106.673 133.157 107.38 129.897 108.792 126.963C110.205 123.92 112.215 121.312 114.823 119.139C117.54 116.857 120.8 115.118 124.603 113.923C128.515 112.619 132.971 111.967 137.969 111.967C142.968 111.967 147.586 112.456 151.824 113.434C156.171 114.303 160.083 115.553 163.56 117.183L158.67 133.809ZM255.892 159.889H205.362V160.541C205.362 165.974 207.481 169.941 211.719 172.44C215.957 174.939 221.282 176.189 227.693 176.189C232.148 176.189 236.06 175.754 239.429 174.885C242.798 174.016 245.623 172.983 247.905 171.788L252.306 188.414C249.372 189.827 245.623 191.076 241.059 192.163C236.604 193.25 231.116 193.793 224.596 193.793C218.728 193.793 213.132 193.032 207.807 191.511C202.591 189.881 197.973 187.436 193.952 184.176C190.04 180.916 186.889 176.787 184.498 171.788C182.216 166.789 181.075 160.813 181.075 153.858C181.075 147.664 181.999 142.013 183.846 136.906C185.802 131.69 188.519 127.235 191.996 123.54C195.473 119.845 199.603 117.02 204.384 115.064C209.274 112.999 214.653 111.967 220.521 111.967C231.279 111.967 239.864 115.227 246.275 121.747C252.686 128.267 255.892 137.558 255.892 149.62V159.889ZM231.279 143.426C231.279 141.579 231.062 139.786 230.627 138.047C230.192 136.308 229.486 134.787 228.508 133.483C227.639 132.07 226.443 130.984 224.922 130.223C223.509 129.354 221.771 128.919 219.706 128.919C215.903 128.919 212.751 130.277 210.252 132.994C207.753 135.602 206.286 139.188 205.851 143.752L231.279 143.426ZM298.177 192H274.053V113.76H292.798L295.569 123.54C299.046 119.954 302.958 117.129 307.305 115.064C311.651 112.999 316.378 111.967 321.486 111.967C330.288 111.967 337.025 114.358 341.698 119.139C346.37 123.92 348.707 130.929 348.707 140.166V192H324.583V142.611C324.583 138.808 323.659 135.819 321.812 133.646C320.073 131.364 317.465 130.223 313.988 130.223C311.38 130.223 308.609 130.984 305.675 132.505C302.849 134.026 300.35 136.037 298.177 138.536V192ZM420.788 75.455H444.912V192H428.286L425.841 183.524H425.026C423.505 185.915 420.843 188.251 417.039 190.533C413.345 192.706 408.455 193.793 402.369 193.793C397.262 193.793 392.535 192.869 388.188 191.022C383.842 189.066 380.093 186.349 376.941 182.872C373.79 179.286 371.291 174.994 369.443 169.995C367.705 164.888 366.835 159.183 366.835 152.88C366.835 146.686 367.65 141.09 369.28 136.091C370.91 130.984 373.247 126.691 376.289 123.214C379.441 119.628 383.298 116.857 387.862 114.901C392.426 112.945 397.588 111.967 403.347 111.967C406.933 111.967 410.302 112.51 413.453 113.597C416.713 114.575 419.158 115.825 420.788 117.346V75.455ZM420.788 134.95C419.81 133.646 418.289 132.396 416.224 131.201C414.16 130.006 411.878 129.408 409.378 129.408C406.879 129.408 404.543 129.843 402.369 130.712C400.196 131.473 398.24 132.777 396.501 134.624C394.871 136.471 393.567 138.862 392.589 141.796C391.611 144.621 391.122 148.153 391.122 152.391C391.122 160.541 392.698 166.572 395.849 170.484C399.109 174.287 403.293 176.189 408.4 176.189C411.552 176.189 414.16 175.374 416.224 173.744C418.398 172.114 419.919 170.375 420.788 168.528V134.95ZM538.028 159.889H487.498V160.541C487.498 165.974 489.617 169.941 493.855 172.44C498.093 174.939 503.418 176.189 509.829 176.189C514.285 176.189 518.197 175.754 521.565 174.885C524.934 174.016 527.759 172.983 530.041 171.788L534.442 188.414C531.508 189.827 527.759 191.076 523.195 192.163C518.74 193.25 513.252 193.793 506.732 193.793C500.864 193.793 495.268 193.032 489.943 191.511C484.727 189.881 480.109 187.436 476.088 184.176C472.176 180.916 469.025 176.787 466.634 171.788C464.352 166.789 463.211 160.813 463.211 153.858C463.211 147.664 464.135 142.013 465.982 136.906C467.938 131.69 470.655 127.235 474.132 123.54C477.61 119.845 481.739 117.02 486.52 115.064C491.41 112.999 496.789 111.967 502.657 111.967C513.415 111.967 522 115.227 528.411 121.747C534.823 128.267 538.028 137.558 538.028 149.62V159.889ZM513.415 143.426C513.415 141.579 513.198 139.786 512.763 138.047C512.329 136.308 511.622 134.787 510.644 133.483C509.775 132.07 508.58 130.984 507.058 130.223C505.646 129.354 503.907 128.919 501.842 128.919C498.039 128.919 494.888 130.277 492.388 132.994C489.889 135.602 488.422 139.188 487.987 143.752L513.415 143.426ZM580.313 192H556.189V113.76H574.934L577.705 123.54C581.182 119.954 585.094 117.129 589.441 115.064C593.788 112.999 598.515 111.967 603.622 111.967C612.424 111.967 619.161 114.358 623.834 119.139C628.507 123.92 630.843 130.929 630.843 140.166V192H606.719V142.611C606.719 138.808 605.795 135.819 603.948 133.646C602.209 131.364 599.601 130.223 596.124 130.223C593.516 130.223 590.745 130.984 587.811 132.505C584.986 134.026 582.486 136.037 580.313 138.536V192ZM700.662 131.038H680.613V164.127C680.613 167.713 681.373 170.212 682.895 171.625C684.525 173.038 686.752 173.744 689.578 173.744C691.751 173.744 693.924 173.527 696.098 173.092C698.271 172.657 699.955 172.06 701.151 171.299L704.737 187.762C702.889 188.74 700.064 189.718 696.261 190.696C692.566 191.565 688.6 192 684.362 192C674.256 192 667.084 190.044 662.846 186.132C658.716 182.22 656.652 176.298 656.652 168.365V131.038H644.427V113.76H656.652V89.962H680.613V113.76H700.662V131.038ZM720.498 192V113.76H744.622V192H720.498ZM732.56 98.438C728.431 98.438 725.279 97.297 723.106 95.015C720.933 92.6243 719.846 89.799 719.846 86.539C719.846 83.279 720.933 80.508 723.106 78.226C725.388 75.8353 728.539 74.64 732.56 74.64C736.581 74.64 739.678 75.781 741.851 78.063C744.133 80.345 745.274 83.1703 745.274 86.539C745.274 89.9077 744.187 92.733 742.014 95.015C739.841 97.297 736.689 98.438 732.56 98.438ZM816.853 133.809C813.919 132.396 810.822 131.31 807.562 130.549C804.302 129.68 801.15 129.245 798.108 129.245C795.282 129.245 793 129.734 791.262 130.712C789.523 131.69 788.654 133.048 788.654 134.787C788.654 136.634 789.469 138.21 791.099 139.514C792.837 140.709 796.206 142.013 801.205 143.426L806.095 144.893C812.615 146.849 817.559 149.729 820.928 153.532C824.296 157.227 825.981 162.008 825.981 167.876C825.981 171.788 825.166 175.374 823.536 178.634C821.906 181.785 819.569 184.502 816.527 186.784C813.593 189.066 810.007 190.805 805.769 192C801.639 193.195 797.021 193.793 791.914 193.793C786.372 193.793 781.427 193.304 777.081 192.326C772.843 191.348 768.876 189.935 765.182 188.088L770.398 170.647C773.549 172.277 776.809 173.635 780.178 174.722C783.655 175.7 787.187 176.189 790.773 176.189C794.902 176.189 797.782 175.591 799.412 174.396C801.15 173.201 802.02 171.788 802.02 170.158C802.02 169.18 801.802 168.365 801.368 167.713C801.042 166.952 800.39 166.246 799.412 165.594C798.434 164.942 797.021 164.344 795.174 163.801C793.435 163.149 791.153 162.388 788.328 161.519L783.275 160.052C776.863 157.987 772.191 155.162 769.257 151.576C766.323 147.881 764.856 142.937 764.856 136.743C764.856 133.157 765.562 129.897 766.975 126.963C768.387 123.92 770.398 121.312 773.006 119.139C775.722 116.857 778.982 115.118 782.786 113.923C786.698 112.619 791.153 111.967 796.152 111.967C801.15 111.967 805.769 112.456 810.007 113.434C814.353 114.303 818.265 115.553 821.743 117.183L816.853 133.809ZM892.703 131.038H872.654V164.127C872.654 167.713 873.414 170.212 874.936 171.625C876.566 173.038 878.793 173.744 881.619 173.744C883.792 173.744 885.965 173.527 888.139 173.092C890.312 172.657 891.996 172.06 893.192 171.299L896.778 187.762C894.93 188.74 892.105 189.718 888.302 190.696C884.607 191.565 880.641 192 876.403 192C866.297 192 859.125 190.044 854.887 186.132C850.757 182.22 848.693 176.298 848.693 168.365V131.038H836.468V113.76H848.693V89.962H872.654V113.76H892.703V131.038Z" fill="#009688"/>
</svg>
